<svg xmlns:cc="http://creativecommons.org/ns#" xmlns="http://www.w3.org/2000/svg" xmlns:svg="http://www.w3.org/2000/svg" xmlns:rdf="http://www.w3.org/1999/02/22-rdf-syntax-ns#" xmlns:dc="http://purl.org/dc/elements/1.1/" viewBox="0 0 37 124" height="124" width="37" id="svg2" version="1.1">
    <title id="title28">Right Bracket for BauDi</title>
    <metadata id="metadata8">
        <rdf:RDF>
            <cc:Work rdf:about="">
                <dc:format>image/svg+xml</dc:format>
                <dc:type rdf:resource="http://purl.org/dc/dcmitype/StillImage"/>
                <dc:title>Right Bracket for BauDi</dc:title>
                <dc:creator>
                    <cc:Agent>
                        <dc:title>Dennis Ried</dc:title>
                    </cc:Agent>
                </dc:creator>
                <dc:date>01.06.2018</dc:date>
            </cc:Work>
        </rdf:RDF>
    </metadata>
    <defs id="defs6">
        <filter id="filter907" style="color-interpolation-filters:sRGB">
            <feColorMatrix id="feColorMatrix905" values="2.702 0 0 -0.846734 -0.851 0 2.702 0 -0.846734 -0.851 0 0 2.702 -0.846734 -0.851 0 0 0 1 0"/>
        </filter>
    </defs>
    <path id="path913" d="m 0.9723336,123.31152 c -1.32043,-1.32043 -0.614303,-2.18592 2.306876,-2.82752 3.5765046,-0.78553 10.9633924,-8.67836 14.0077534,-14.96717 1.177533,-2.43246 2.591045,-7.48625 3.141139,-11.23065 2.068621,-14.080767 3.406095,-18.850576 6.638482,-23.674709 l 3.260919,-4.866714 -3.510919,-3.886167 c -3.23026,-3.575512 -3.510918,-4.388793 -3.510918,-10.17382 0,-4.311491 0.968899,-9.260693 3.082792,-15.747119 C 32.286245,17.840448 31.22725,8.433255 22.717917,3.3317558 21.256995,2.4559063 21.078962,1.8993871 21.963602,0.9738199 c 1.670114,-1.7473801 7.762378,0.4519554 10.344303,3.7343411 2.592027,3.295228 5.164428,12.09626 5.164428,17.669212 0,3.003516 -1.392338,7.351548 -4.583334,14.312961 -5.745071,12.533335 -6.236072,18.8575 -1.794603,23.114774 1.533802,1.470192 3.671302,3.217749 4.75,3.883459 1.906044,1.176299 1.88735,1.277519 -0.663887,3.594648 -5.544514,5.035737 -6.151159,6.88645 -5.393826,16.455125 0.63431,8.014316 0.480089,9.264378 -1.759514,14.26205 -1.35012,3.01279 -3.864779,7.22718 -5.588133,9.3653 -1.723353,2.13813 -3.13337,4.24916 -3.13337,4.69119 0,1.45975 -9.0105,9.9748 -11.5949728,10.95742 -2.9500446,1.1216 -5.7887656,1.24682 -6.7383596,0.29722 z" style="fill:#000000"/>
</svg>