<?xml version="1.0" encoding="iso-8859-1"?>
<!-- Uploaded to: SVG Repo, www.svgrepo.com, Generator: SVG Repo Mixer Tools -->
<!DOCTYPE svg PUBLIC "-//W3C//DTD SVG 1.1//EN" "http://www.w3.org/Graphics/SVG/1.1/DTD/svg11.dtd">
<svg fill="#000000" version="1.1" id="Capa_1" xmlns="http://www.w3.org/2000/svg" xmlns:xlink="http://www.w3.org/1999/xlink" 
	 width="800px" height="800px" viewBox="0 0 28.627 28.627"
	 xml:space="preserve">
<g>
	<g>
		<g id="Icons_19_">
			<g>
				<path d="M13.673,12.018c0.355,0.35,0.925,0.35,1.28,0c1.146-1.132,3.485-3.482,4.068-4.384c0.839-1.3,1.676-2.373,1.676-4.245
					S19.181,0,17.31,0C16,0,14.877,0.75,14.312,1.837C13.749,0.75,12.625,0,11.316,0C9.444,0,7.928,1.517,7.928,3.389
					s0.838,2.945,1.677,4.245C10.188,8.535,12.526,10.886,13.673,12.018z"/>
				<path d="M13.056,12.969c-1.423-0.756-4.364-2.288-5.399-2.575c-1.491-0.413-2.765-0.891-4.552-0.332
					c-1.786,0.559-2.781,2.459-2.223,4.246c0.391,1.25,1.443,2.097,2.649,2.311c-0.869,0.863-1.25,2.158-0.86,3.408
					c0.559,1.787,2.459,2.78,4.247,2.223c1.786-0.559,2.56-1.678,3.55-2.868c0.687-0.825,2.232-3.759,2.97-5.192
					C13.667,13.747,13.498,13.203,13.056,12.969z"/>
				<path d="M25.522,10.062c-1.787-0.559-3.061-0.081-4.552,0.332c-1.035,0.287-3.978,1.818-5.399,2.575
					c-0.438,0.234-0.609,0.778-0.382,1.222c0.738,1.433,2.283,4.368,2.97,5.192c0.99,1.189,1.766,2.31,3.552,2.868
					c1.787,0.56,3.688-0.437,4.247-2.224c0.391-1.25,0.009-2.545-0.86-3.407c1.206-0.214,2.258-1.062,2.648-2.311
					C28.303,12.521,27.309,10.621,25.522,10.062z"/>
				<path d="M17.59,28.312c0.375-0.588,0.754-1.176,1.131-1.77c0.188-0.296,0.167-0.689-0.071-0.948
					c-2.698-2.928-3.561-10.005-3.561-10.005c-0.031-0.367-0.321-0.673-0.701-0.71c-0.428-0.041-0.808,0.272-0.849,0.7
					c0,0-0.087,0.887-0.101,2.188c-0.008,0.578-0.237,7.185,3.082,10.647C16.826,28.734,17.352,28.686,17.59,28.312z"/>
			</g>
		</g>
	</g>
</g>
</svg>